<svg xmlns="http://www.w3.org/2000/svg" xmlns:xlink="http://www.w3.org/1999/xlink" width="500" zoomAndPan="magnify" viewBox="0 0 375 112.499997" height="150" preserveAspectRatio="xMidYMid meet" version="1.0"><defs><g/><clipPath id="846d4d17fd"><path d="M 50.421875 15.214844 L 132.554688 15.214844 L 132.554688 97.351562 L 50.421875 97.351562 Z M 50.421875 15.214844 " clip-rule="nonzero"/></clipPath><clipPath id="d77142c177"><rect x="0" width="178" y="0" height="83"/></clipPath></defs><g clip-path="url(#846d4d17fd)"><path fill="#1d1d1b" d="M 113.734375 97.351562 L 69.242188 97.351562 C 58.867188 97.351562 50.421875 88.90625 50.421875 78.527344 L 50.421875 34.039062 C 50.421875 23.660156 58.867188 15.214844 69.242188 15.214844 L 113.734375 15.214844 C 124.113281 15.214844 132.554688 23.660156 132.554688 34.039062 L 132.554688 78.527344 C 132.554688 88.90625 124.113281 97.351562 113.734375 97.351562 Z M 70.953125 76.816406 L 112.023438 76.816406 L 112.023438 35.75 L 70.953125 35.75 Z M 70.953125 76.816406 " fill-opacity="1" fill-rule="nonzero"/></g><g transform="matrix(1, 0, 0, 1, 141, 15)"><g clip-path="url(#d77142c177)"><g fill="#000000" fill-opacity="1"><g transform="translate(0.766415, 63.170556)"><g><path d="M 4.703125 0 L 4.703125 -45.1875 L 17.625 -45.1875 L 29.140625 -12.28125 L 40.609375 -45.1875 L 53.515625 -45.1875 L 53.515625 0 L 43.84375 0 L 43.84375 -29.28125 L 33.21875 -0.125 L 24.953125 -0.125 L 14.375 -29.28125 L 14.375 0 Z M 4.703125 0 "/></g></g></g><g fill="#000000" fill-opacity="1"><g transform="translate(52.750534, 63.170556)"><g><path d="M 1.203125 0 L 17.5 -45.1875 L 28.953125 -45.1875 L 45.25 0 L 35.1875 0 L 31.890625 -9.609375 L 14.515625 -9.609375 L 11.203125 0 Z M 17.25 -17.5625 L 29.21875 -17.5625 L 23.234375 -35 Z M 17.25 -17.5625 "/></g></g></g><g fill="#000000" fill-opacity="1"><g transform="translate(91.945114, 63.170556)"><g><path d="M 4.703125 0 L 4.703125 -45.1875 L 15.40625 -45.1875 L 33.34375 -14 L 33.34375 -45.1875 L 43.015625 -45.1875 L 43.015625 0 L 32.203125 0 L 14.375 -30.109375 L 14.375 0 Z M 4.703125 0 "/></g></g></g><g fill="#000000" fill-opacity="1"><g transform="translate(135.021282, 63.170556)"><g><path d="M 22.40625 1.015625 C 18.582031 1.015625 15.28125 0.316406 12.5 -1.078125 C 9.726562 -2.484375 7.578125 -4.488281 6.046875 -7.09375 C 4.515625 -9.707031 3.75 -12.773438 3.75 -16.296875 L 3.75 -45.25 L 13.421875 -45.25 L 13.421875 -16.296875 C 13.421875 -13.367188 14.195312 -11.109375 15.75 -9.515625 C 17.300781 -7.921875 19.519531 -7.125 22.40625 -7.125 C 25.289062 -7.125 27.492188 -7.921875 29.015625 -9.515625 C 30.546875 -11.109375 31.3125 -13.367188 31.3125 -16.296875 L 31.3125 -45.25 L 40.984375 -45.25 L 40.984375 -16.296875 C 40.984375 -12.773438 40.226562 -9.707031 38.71875 -7.09375 C 37.21875 -4.488281 35.066406 -2.484375 32.265625 -1.078125 C 29.460938 0.316406 26.175781 1.015625 22.40625 1.015625 Z M 22.40625 1.015625 "/></g></g></g></g></g></svg>